<svg width="30" height="19" viewBox="0 0 30 19" fill="none" xmlns="http://www.w3.org/2000/svg">
<path d="M25.4667 15.9333C25.8444 16.1333 26.1778 16.0889 26.4667 15.8C26.7556 15.5111 26.8 15.1778 26.6 14.8L24.6667 11.2L23.2667 14.8L25.4667 15.9333ZM18.8 14.6667H20.4L23.6 6.73333C23.6667 6.55556 23.65 6.40556 23.55 6.28333C23.45 6.16111 23.3333 6.06667 23.2 6L20.5333 4.93333C20.3333 4.86667 20.1389 4.88889 19.95 5C19.7611 5.11111 19.6444 5.26667 19.6 5.46667L18.8 14.6667ZM8.93333 14.6667H10.5333L9.73333 5.46667C9.68889 5.22222 9.57222 5.05556 9.38333 4.96667C9.19444 4.87778 9 4.86667 8.8 4.93333L6.13333 6C5.95556 6.06667 5.82778 6.16111 5.75 6.28333C5.67222 6.40556 5.66667 6.55556 5.73333 6.73333L8.93333 14.6667ZM3.86667 15.9333L6.06667 14.8L4.66667 11.2L2.73333 14.8C2.53333 15.1778 2.57778 15.5111 2.86667 15.8C3.15556 16.0889 3.48889 16.1333 3.86667 15.9333ZM13.2 14.6667H16.1333L17.1333 3.4C17.1778 3.2 17.1278 3.02778 16.9833 2.88333C16.8389 2.73889 16.6667 2.66667 16.4667 2.66667H12.8667C12.6889 2.66667 12.5278 2.73889 12.3833 2.88333C12.2389 3.02778 12.1778 3.2 12.2 3.4L13.2 14.6667ZM3.26667 18.6667C2.33333 18.6667 1.55556 18.3167 0.933333 17.6167C0.311111 16.9167 0 16.0889 0 15.1333C0 14.8667 0.0388889 14.6056 0.116667 14.35C0.194444 14.0944 0.288889 13.8444 0.4 13.6L3.33333 8C3.02222 7.11111 3.03333 6.23333 3.36667 5.36667C3.7 4.5 4.28889 3.88889 5.13333 3.53333L7.8 2.46667C8.11111 2.35556 8.42222 2.27778 8.73333 2.23333C9.04445 2.18889 9.35556 2.2 9.66667 2.26667C9.97778 1.62222 10.4111 1.08333 10.9667 0.65C11.5222 0.216667 12.1556 0 12.8667 0H16.4667C17.1778 0 17.8111 0.216667 18.3667 0.65C18.9222 1.08333 19.3556 1.62222 19.6667 2.26667C19.9778 2.22222 20.2889 2.21667 20.6 2.25C20.9111 2.28333 21.2222 2.35556 21.5333 2.46667L24.2 3.53333C25.0889 3.88889 25.7111 4.5 26.0667 5.36667C26.4222 6.23333 26.4 7.08889 26 7.93333L28.9333 13.5333C29.0667 13.7778 29.1667 14.0333 29.2333 14.3C29.3 14.5667 29.3333 14.8444 29.3333 15.1333C29.3333 16.1333 28.9944 16.9722 28.3167 17.65C27.6389 18.3278 26.8 18.6667 25.8 18.6667C25.5556 18.6667 25.3111 18.6389 25.0667 18.5833C24.8222 18.5278 24.5778 18.4444 24.3333 18.3333L22.2667 17.3333H7L5.13333 18.3333C4.84444 18.4889 4.53889 18.5833 4.21667 18.6167C3.89444 18.65 3.57778 18.6667 3.26667 18.6667Z" fill="#5F5E5E"/>
</svg>
