<svg width="30" height="30" viewBox="0 0 30 30" fill="none" xmlns="http://www.w3.org/2000/svg">
<path d="M14.6667 29.3333C12.6444 29.3333 10.7444 28.95 8.96667 28.1833C7.18889 27.4167 5.63333 26.3667 4.3 25.0333C2.96667 23.7 1.91667 22.1444 1.15 20.3667C0.383333 18.5889 0 16.6889 0 14.6667C0 12.6444 0.383333 10.7444 1.15 8.96667C1.91667 7.18889 2.96667 5.63333 4.3 4.3C5.63333 2.96667 7.18889 1.91667 8.96667 1.15C10.7444 0.383333 12.6444 0 14.6667 0C16.6889 0 18.5889 0.383333 20.3667 1.15C22.1444 1.91667 23.7 2.96667 25.0333 4.3C26.3667 5.63333 27.4167 7.18889 28.1833 8.96667C28.95 10.7444 29.3333 12.6444 29.3333 14.6667C29.3333 16.6889 28.95 18.5889 28.1833 20.3667C27.4167 22.1444 26.3667 23.7 25.0333 25.0333C23.7 26.3667 22.1444 27.4167 20.3667 28.1833C18.5889 28.95 16.6889 29.3333 14.6667 29.3333ZM14.6667 26.6667C18 26.6667 20.8333 25.5 23.1667 23.1667C25.5 20.8333 26.6667 18 26.6667 14.6667C26.6667 11.3333 25.5 8.5 23.1667 6.16667C20.8333 3.83333 18 2.66667 14.6667 2.66667C11.3333 2.66667 8.5 3.83333 6.16667 6.16667C3.83333 8.5 2.66667 11.3333 2.66667 14.6667C2.66667 18 3.83333 20.8333 6.16667 23.1667C8.5 25.5 11.3333 26.6667 14.6667 26.6667ZM14.6667 24C17.2667 24 19.4722 23.0944 21.2833 21.2833C23.0944 19.4722 24 17.2667 24 14.6667C24 12.0667 23.0944 9.86111 21.2833 8.05C19.4722 6.23889 17.2667 5.33333 14.6667 5.33333C14.0222 5.33333 13.4222 5.47222 12.8667 5.75C12.3111 6.02778 11.8444 6.42222 11.4667 6.93333C10.8444 6.88889 10.2333 6.95556 9.63333 7.13333C9.03333 7.31111 8.51111 7.62222 8.06667 8.06667C7.62222 8.51111 7.3 9.03333 7.1 9.63333C6.9 10.2333 6.84444 10.8444 6.93333 11.4667C6.42222 11.8444 6.02778 12.3111 5.75 12.8667C5.47222 13.4222 5.33333 14.0222 5.33333 14.6667C5.33333 15.3111 5.47222 15.9111 5.75 16.4667C6.02778 17.0222 6.42222 17.4889 6.93333 17.8667C6.84444 18.4889 6.9 19.1 7.1 19.7C7.3 20.3 7.62222 20.8222 8.06667 21.2667C8.51111 21.7111 9.03333 22.0389 9.63333 22.25C10.2333 22.4611 10.8444 22.5111 11.4667 22.4C11.8444 22.9111 12.3111 23.3056 12.8667 23.5833C13.4222 23.8611 14.0222 24 14.6667 24ZM14.6667 21.3333C14.1778 21.3333 13.8 21.1278 13.5333 20.7167C13.2667 20.3056 12.9778 19.9111 12.6667 19.5333C12.1778 19.6 11.6889 19.6833 11.2 19.7833C10.7111 19.8833 10.2889 19.7556 9.93333 19.4C9.57778 19.0444 9.45 18.6222 9.55 18.1333C9.65 17.6444 9.73333 17.1556 9.8 16.6667C9.42222 16.3778 9.02778 16.0944 8.61667 15.8167C8.20556 15.5389 8 15.1556 8 14.6667C8 14.1778 8.20556 13.8 8.61667 13.5333C9.02778 13.2667 9.42222 12.9778 9.8 12.6667C9.73333 12.1778 9.65 11.6889 9.55 11.2C9.45 10.7111 9.57778 10.2889 9.93333 9.93333C10.2889 9.57778 10.7111 9.45 11.2 9.55C11.6889 9.65 12.1778 9.73333 12.6667 9.8C12.9556 9.42222 13.2389 9.02778 13.5167 8.61667C13.7944 8.20556 14.1778 8 14.6667 8V21.3333ZM18.6667 20L16.8 18.1333L18.6667 16.2333L20.5333 18.1333L18.6667 20ZM19.4 13.6333L16.6 10.8C16.9778 10.4222 17.4444 10.2278 18 10.2167C18.5556 10.2056 19.0222 10.4 19.4 10.8C19.7778 11.1778 19.9722 11.65 19.9833 12.2167C19.9944 12.7833 19.8 13.2556 19.4 13.6333Z" fill="#5F5E5E"/>
</svg>
