<svg width="28" height="27" viewBox="0 0 28 27" fill="none" xmlns="http://www.w3.org/2000/svg">
<path d="M14 26.6L0 5.6C1.98333 3.92 4.15917 2.56667 6.5275 1.54C8.89583 0.513333 11.3867 0 14 0C16.6133 0 19.1042 0.5075 21.4725 1.5225C23.8408 2.5375 26.0167 3.89667 28 5.6L14 26.6ZM14 21.56L24.22 6.23C22.7033 5.18 21.0817 4.34583 19.355 3.7275C17.6283 3.10917 15.8433 2.8 14 2.8C12.1567 2.8 10.3775 3.10917 8.6625 3.7275C6.9475 4.34583 5.32 5.18 3.78 6.23L14 21.56ZM10.5 9.8C11.0833 9.8 11.5792 9.59583 11.9875 9.1875C12.3958 8.77917 12.6 8.28333 12.6 7.7C12.6 7.11667 12.3958 6.62083 11.9875 6.2125C11.5792 5.80417 11.0833 5.6 10.5 5.6C9.91667 5.6 9.42083 5.80417 9.0125 6.2125C8.60417 6.62083 8.4 7.11667 8.4 7.7C8.4 8.28333 8.60417 8.77917 9.0125 9.1875C9.42083 9.59583 9.91667 9.8 10.5 9.8ZM14 16.8C14.5833 16.8 15.0792 16.5958 15.4875 16.1875C15.8958 15.7792 16.1 15.2833 16.1 14.7C16.1 14.1167 15.8958 13.6208 15.4875 13.2125C15.0792 12.8042 14.5833 12.6 14 12.6C13.4167 12.6 12.9208 12.8042 12.5125 13.2125C12.1042 13.6208 11.9 14.1167 11.9 14.7C11.9 15.2833 12.1042 15.7792 12.5125 16.1875C12.9208 16.5958 13.4167 16.8 14 16.8Z" fill="#6D0010"/>
</svg>
