<svg fill="none" height="100%" width="100%" viewBox="0 0 160 160" xmlns:xlink="http://www.w3.org/1999/xlink" xmlns="http://www.w3.org/2000/svg"><defs><filter id="i0"><feColorMatrix values="0 0 0 0 1 0 0 0 0 1 0 0 0 0 1 0 0 0 1 0" type="matrix" /></filter><mask height="20000" width="20000" y="-10000" x="-10000" maskContentUnits="userSpaceOnUse" maskUnits="userSpaceOnUse" style="mask-type: alpha" mask-type="alpha" id="i1"><g filter="url(#i0)"><g transform="translate(77,100)"><animateTransform repeatCount="indefinite" type="translate" attributeName="transform" dur="7s" begin="0s" calcMode="spline" values="77 100; 77 100; 210 100; 210 100" keyTimes="0; 0.542857; 0.654286; 1" keySplines="0 0 1 1; 0.167 0.167 0.667 1; 0 0 1 1" fill="freeze" /><g transform="rotate(0)"><animateTransform repeatCount="indefinite" type="rotate" attributeName="transform" dur="7s" begin="0s" calcMode="spline" values="0; 0; -6; 0; 0" keyTimes="0; 0.537143; 0.548571; 0.557143; 1" keySplines="0 0 1 1; 0 0 1 1; 0 0 1 1; 0 0 1 1" fill="freeze" /><g transform="scale(0.21,0.21) translate(0,0)"><g id="i2"><g transform="translate(-40.476,-350)"><animateMotion repeatCount="indefinite" dur="7s" begin="0s" calcMode="spline" keyTimes="0; 0.331429; 0.408571; 1" keySplines="0 0 1 1; 0.333 0 0.833 0.833; 0 0 1 1" keyPoints="0; 0; 1; 1" path="M0 0 C46.627 60.317 55.953 178.818 57.143 290.524" fill="freeze" /><g transform="rotate(-33)"><animateTransform repeatCount="indefinite" type="rotate" attributeName="transform" dur="7s" begin="0s" calcMode="spline" values="-33; -33; 26; 26" keyTimes="0; 0.331429; 0.408571; 1" keySplines="0 0 1 1; 0.333 0 0.833 0.833; 0 0 1 1" fill="freeze" /><g transform="scale(0.762,0.762) translate(0,0)"><g opacity="0" id="i3"><animate repeatCount="indefinite" attributeName="opacity" dur="7s" begin="0s" fill="freeze" values="0; 0; 1; 1" keyTimes="0; 0.317143; 0.334286; 1" keySplines="0 0 1 1; 0 0 1 1; 0 0 1 1" calcMode="spline" /><g transform="translate(-1.25,-13.125) scale(5,5) translate(-20,43.25)"><g id="i4"><path fill="#c5b4f2" d="M21.5,-57C13.75,-57,17.875,-56.75,17.875,-56.75C17.875,-56.75,11.375,-57,11.375,-52.75C11.375,-48.5,11.375,-22.125,11.375,-22.125C11.375,-22.125,11.375,-20.25,13.875,-20.25C16.375,-20.25,27.75,-20.25,27.75,-20.25C27.75,-20.25,29.25,-20.625,29.25,-22.5C29.25,-24.375,29.25,-53,29.25,-53C29.25,-53,29.25,-57,21.5,-57Z" /></g><g id="i5" transform="matrix(1,0,0,1,20.342,-61.417)"><rect height="12.416" width="5.791" y="-6.208" x="-2.896" fill="#8069bc" /></g></g></g></g></g></g></g></g></g></g></g></mask></defs><g id="i6"><g transform="translate(77,100)"><animateTransform repeatCount="indefinite" type="translate" attributeName="transform" dur="7s" begin="0s" calcMode="spline" values="77 100; 77 100; 210 100; 210 100" keyTimes="0; 0.542857; 0.654286; 1" keySplines="0 0 1 1; 0.167 0.167 0.667 1; 0 0 1 1" fill="freeze" /><g transform="rotate(0)"><animateTransform repeatCount="indefinite" type="rotate" attributeName="transform" dur="7s" begin="0s" calcMode="spline" values="0; 0; -6; 0; 0" keyTimes="0; 0.537143; 0.548571; 0.557143; 1" keySplines="0 0 1 1; 0 0 1 1; 0 0 1 1; 0 0 1 1" fill="freeze" /><g transform="scale(0.21,0.21) translate(0,0)"><g id="i2"><g transform="translate(-40.476,-350)"><animateMotion repeatCount="indefinite" dur="7s" begin="0s" calcMode="spline" keyTimes="0; 0.331429; 0.408571; 1" keySplines="0 0 1 1; 0.333 0 0.833 0.833; 0 0 1 1" keyPoints="0; 0; 1; 1" path="M0 0 C46.627 60.317 55.953 178.818 57.143 290.524" fill="freeze" /><g transform="rotate(-33)"><animateTransform repeatCount="indefinite" type="rotate" attributeName="transform" dur="7s" begin="0s" calcMode="spline" values="-33; -33; 26; 26" keyTimes="0; 0.331429; 0.408571; 1" keySplines="0 0 1 1; 0.333 0 0.833 0.833; 0 0 1 1" fill="freeze" /><g transform="scale(0.762,0.762) translate(0,0)"><g opacity="0" visibility="visible" id="i7"><animate repeatCount="indefinite" begin="0s" calcMode="discrete" dur="7s" values="visible; hidden; hidden" keyTimes="0; 0.857; 1" attributeName="visibility" /><animate repeatCount="indefinite" attributeName="opacity" dur="7s" begin="0s" fill="freeze" values="0; 0; 1; 1" keyTimes="0; 0.317143; 0.334286; 1" keySplines="0 0 1 1; 0 0 1 1; 0 0 1 1" calcMode="spline" /><g transform="translate(-1.25,-13.125) scale(5,5) translate(-20,43.25)"><g id="i4"><path fill="#c5b4f2" d="M21.5,-57C13.75,-57,17.875,-56.75,17.875,-56.75C17.875,-56.75,11.375,-57,11.375,-52.75C11.375,-48.5,11.375,-22.125,11.375,-22.125C11.375,-22.125,11.375,-20.25,13.875,-20.25C16.375,-20.25,27.75,-20.25,27.75,-20.25C27.75,-20.25,29.25,-20.625,29.25,-22.5C29.25,-24.375,29.25,-53,29.25,-53C29.25,-53,29.25,-57,21.5,-57Z" /></g><g id="i5" transform="matrix(1,0,0,1,20.342,-61.417)"><rect height="12.416" width="5.791" y="-6.208" x="-2.896" fill="#4c4265" /></g></g></g></g></g></g></g></g></g></g></g><g mask="url(#i1)" id="i6"><g transform="translate(77,100)"><animateTransform repeatCount="indefinite" type="translate" attributeName="transform" dur="7s" begin="0s" calcMode="spline" values="77 100; 77 100; 210 100; 210 100" keyTimes="0; 0.542857; 0.654286; 1" keySplines="0 0 1 1; 0.167 0.167 0.667 1; 0 0 1 1" fill="freeze" /><g transform="rotate(0)"><animateTransform repeatCount="indefinite" type="rotate" attributeName="transform" dur="7s" begin="0s" calcMode="spline" values="0; 0; -6; 0; 0" keyTimes="0; 0.537143; 0.548571; 0.557143; 1" keySplines="0 0 1 1; 0 0 1 1; 0 0 1 1; 0 0 1 1" fill="freeze" /><g transform="scale(0.21,0.21) translate(0,0)"><g id="i2"><g transform="translate(-40.476,-350)"><animateMotion repeatCount="indefinite" dur="7s" begin="0s" calcMode="spline" keyTimes="0; 0.331429; 0.408571; 1" keySplines="0 0 1 1; 0.333 0 0.833 0.833; 0 0 1 1" keyPoints="0; 0; 1; 1" path="M0 0 C46.627 60.317 55.953 178.818 57.143 290.524" fill="freeze" /><g transform="rotate(-33)"><animateTransform repeatCount="indefinite" type="rotate" attributeName="transform" dur="7s" begin="0s" calcMode="spline" values="-33; -33; 26; 26" keyTimes="0; 0.331429; 0.408571; 1" keySplines="0 0 1 1; 0.333 0 0.833 0.833; 0 0 1 1" fill="freeze" /><g transform="scale(0.762,0.762) translate(0,0)"><g opacity="0" visibility="visible" id="i8"><animate repeatCount="indefinite" begin="0s" calcMode="discrete" dur="7s" values="visible; hidden; hidden" keyTimes="0; 0.857; 1" attributeName="visibility" /><animate repeatCount="indefinite" attributeName="opacity" dur="7s" begin="0s" fill="freeze" values="0; 0; 1; 1" keyTimes="0; 0.317143; 0.334286; 1" keySplines="0 0 1 1; 0 0 1 1; 0 0 1 1" calcMode="spline" /><g transform="translate(-1.104,31.587)"><animateTransform repeatCount="indefinite" type="translate" attributeName="transform" dur="7s" begin="0s" calcMode="spline" values="-1.104 31.587; -1.104 31.587; -123.223 5.303; -216.044 55.817; -279.168 167.208; -279.168 167.208" keyTimes="0; 0.357143; 0.375509; 0.390206; 0.408571; 1" keySplines="0 0 1 1; 0.333 0 0.833 0.833; 0.333 0 0.833 0.833; 0.333 0 0.833 0.833; 0 0 1 1" fill="freeze" /><g transform="rotate(25)"><animateTransform repeatCount="indefinite" type="rotate" attributeName="transform" dur="7s" begin="0s" calcMode="spline" values="25; 25; 13; -11; -25; -25" keyTimes="0; 0.331429; 0.360814; 0.390206; 0.408571; 1" keySplines="0 0 1 1; 0.333 0 0.833 0.833; 0.333 0 0.833 0.833; 0.333 0 0.833 0.833; 0 0 1 1" fill="freeze" /><g transform="scale(5,5) translate(-20.029,35.433)"><g id="i4"><path fill="#7964b1" d="M94.25,-51.75C83,-50.75,81.25,-43.75,62,-44.5C42.75,-45.25,42,-48.75,34,-50.5C26,-52.25,2.5,-50.5,2.5,-50.5C2.5,-50.5,2.5,-23.25,2.5,-23.25C2.5,-23.25,15,-16,15,-16C15,-16,50,-14,50,-14C50,-14,94.25,-21,94.25,-21C94.25,-21,105.5,-52.75,94.25,-51.75Z" /></g></g></g></g></g></g></g></g></g></g></g></g></g><g display="none" id="i6"><g transform="translate(77,100)"><animateTransform repeatCount="indefinite" type="translate" attributeName="transform" dur="7s" begin="0s" calcMode="spline" values="77 100; 77 100; 210 100; 210 100" keyTimes="0; 0.542857; 0.654286; 1" keySplines="0 0 1 1; 0.167 0.167 0.667 1; 0 0 1 1" fill="freeze" /><g transform="rotate(0)"><animateTransform repeatCount="indefinite" type="rotate" attributeName="transform" dur="7s" begin="0s" calcMode="spline" values="0; 0; -6; 0; 0" keyTimes="0; 0.537143; 0.548571; 0.557143; 1" keySplines="0 0 1 1; 0 0 1 1; 0 0 1 1; 0 0 1 1" fill="freeze" /><g transform="scale(0.21,0.21) translate(0,0)"><g id="i2"><g transform="translate(-40.476,-350)"><animateMotion repeatCount="indefinite" dur="7s" begin="0s" calcMode="spline" keyTimes="0; 0.331429; 0.408571; 1" keySplines="0 0 1 1; 0.333 0 0.833 0.833; 0 0 1 1" keyPoints="0; 0; 1; 1" path="M0 0 C46.627 60.317 55.953 178.818 57.143 290.524" fill="freeze" /><g transform="rotate(-33)"><animateTransform repeatCount="indefinite" type="rotate" attributeName="transform" dur="7s" begin="0s" calcMode="spline" values="-33; -33; 26; 26" keyTimes="0; 0.331429; 0.408571; 1" keySplines="0 0 1 1; 0.333 0 0.833 0.833; 0 0 1 1" fill="freeze" /><g transform="scale(0.762,0.762) translate(0,0)"><g opacity="0" visibility="visible" id="i3"><animate repeatCount="indefinite" begin="0s" calcMode="discrete" dur="7s" values="visible; hidden; hidden" keyTimes="0; 0.857; 1" attributeName="visibility" /><animate repeatCount="indefinite" attributeName="opacity" dur="7s" begin="0s" fill="freeze" values="0; 0; 1; 1" keyTimes="0; 0.317143; 0.334286; 1" keySplines="0 0 1 1; 0 0 1 1; 0 0 1 1" calcMode="spline" /><g transform="translate(-1.25,-13.125) scale(5,5) translate(-20,43.25)"><g id="i4"><path fill="#c5b4f2" d="M21.5,-57C13.75,-57,17.875,-56.75,17.875,-56.75C17.875,-56.75,11.375,-57,11.375,-52.75C11.375,-48.5,11.375,-22.125,11.375,-22.125C11.375,-22.125,11.375,-20.25,13.875,-20.25C16.375,-20.25,27.75,-20.25,27.75,-20.25C27.75,-20.25,29.25,-20.625,29.25,-22.5C29.25,-24.375,29.25,-53,29.25,-53C29.25,-53,29.25,-57,21.5,-57Z" /></g><g id="i5" transform="matrix(1,0,0,1,20.342,-61.417)"><rect height="12.416" width="5.791" y="-6.208" x="-2.896" fill="#8069bc" /></g></g></g></g></g></g></g></g></g></g></g><g id="i6"><g transform="translate(77,100)"><animateTransform repeatCount="indefinite" type="translate" attributeName="transform" dur="7s" begin="0s" calcMode="spline" values="77 100; 77 100; 210 100; 210 100" keyTimes="0; 0.542857; 0.654286; 1" keySplines="0 0 1 1; 0.167 0.167 0.667 1; 0 0 1 1" fill="freeze" /><g transform="rotate(0)"><animateTransform repeatCount="indefinite" type="rotate" attributeName="transform" dur="7s" begin="0s" calcMode="spline" values="0; 0; -6; 0; 0" keyTimes="0; 0.537143; 0.548571; 0.557143; 1" keySplines="0 0 1 1; 0 0 1 1; 0 0 1 1; 0 0 1 1" fill="freeze" /><g transform="scale(0.21,0.21) translate(0,0)"><g id="i2"><g transform="translate(-40.476,-350)"><animateMotion repeatCount="indefinite" dur="7s" begin="0s" calcMode="spline" keyTimes="0; 0.331429; 0.408571; 1" keySplines="0 0 1 1; 0.333 0 0.833 0.833; 0 0 1 1" keyPoints="0; 0; 1; 1" path="M0 0 C46.627 60.317 55.953 178.818 57.143 290.524" fill="freeze" /><g transform="rotate(-33)"><animateTransform repeatCount="indefinite" type="rotate" attributeName="transform" dur="7s" begin="0s" calcMode="spline" values="-33; -33; 26; 26" keyTimes="0; 0.331429; 0.408571; 1" keySplines="0 0 1 1; 0.333 0 0.833 0.833; 0 0 1 1" fill="freeze" /><g transform="scale(0.762,0.762) translate(0,0)"><g opacity="0" visibility="visible" id="i9"><animate repeatCount="indefinite" begin="0s" calcMode="discrete" dur="7s" values="visible; hidden; hidden" keyTimes="0; 0.857; 1" attributeName="visibility" /><animate repeatCount="indefinite" attributeName="opacity" dur="7s" begin="0s" fill="freeze" values="0; 0; 1; 1" keyTimes="0; 0.317143; 0.334286; 1" keySplines="0 0 1 1; 0 0 1 1; 0 0 1 1" calcMode="spline" /><g transform="translate(-25.937,5.938) scale(2.823,4.49) translate(-15.938,40.366)"><g id="i4"><path fill="#a38ae2" d="M17.625,-57C17.625,-57,15.5,-56.375,15.5,-56.375C15.5,-56.375,13.25,-56.125,13.25,-53.125C13.25,-50.125,13.25,-23.5,13.25,-23.5C13.25,-23.5,16.5,-23.125,17.625,-23.25C17.625,-23.25,17.625,-57,17.625,-57Z" /></g></g></g></g></g></g></g></g></g></g></g><g id="i6"><g transform="translate(77,100)"><animateTransform repeatCount="indefinite" type="translate" attributeName="transform" dur="7s" begin="0s" calcMode="spline" values="77 100; 77 100; 210 100; 210 100" keyTimes="0; 0.542857; 0.654286; 1" keySplines="0 0 1 1; 0.167 0.167 0.667 1; 0 0 1 1" fill="freeze" /><g transform="rotate(0)"><animateTransform repeatCount="indefinite" type="rotate" attributeName="transform" dur="7s" begin="0s" calcMode="spline" values="0; 0; -6; 0; 0" keyTimes="0; 0.537143; 0.548571; 0.557143; 1" keySplines="0 0 1 1; 0 0 1 1; 0 0 1 1; 0 0 1 1" fill="freeze" /><g transform="scale(0.21,0.21) translate(0,0)"><g id="i2"><g transform="translate(-40.476,-350)"><animateMotion repeatCount="indefinite" dur="7s" begin="0s" calcMode="spline" keyTimes="0; 0.331429; 0.408571; 1" keySplines="0 0 1 1; 0.333 0 0.833 0.833; 0 0 1 1" keyPoints="0; 0; 1; 1" path="M0 0 C46.627 60.317 55.953 178.818 57.143 290.524" fill="freeze" /><g transform="rotate(-33)"><animateTransform repeatCount="indefinite" type="rotate" attributeName="transform" dur="7s" begin="0s" calcMode="spline" values="-33; -33; 26; 26" keyTimes="0; 0.331429; 0.408571; 1" keySplines="0 0 1 1; 0.333 0 0.833 0.833; 0 0 1 1" fill="freeze" /><g transform="scale(0.762,0.762) translate(0,0)"><g opacity="0" visibility="visible" id="i10"><animate repeatCount="indefinite" begin="0s" calcMode="discrete" dur="7s" values="visible; hidden; hidden" keyTimes="0; 0.857; 1" attributeName="visibility" /><animate repeatCount="indefinite" attributeName="opacity" dur="7s" begin="0s" fill="freeze" values="0; 0; 1; 1" keyTimes="0; 0.317143; 0.334286; 1" keySplines="0 0 1 1; 0 0 1 1; 0 0 1 1" calcMode="spline" /><g transform="translate(33.438,80.938) scale(3.077,3.077) translate(-26.25,26.5)"><g id="i4"><path fill="#5c4596" d="M26.5,-41C26.5,-41,19.75,-26.5,19.75,-26.5C19.75,-26.5,26.5,-26.5,26.5,-26.5C26.5,-26.5,26.5,-41,26.5,-41Z" /></g></g></g></g></g></g></g></g></g></g></g><g id="i6"><g transform="translate(77,100)"><animateTransform repeatCount="indefinite" type="translate" attributeName="transform" dur="7s" begin="0s" calcMode="spline" values="77 100; 77 100; 210 100; 210 100" keyTimes="0; 0.542857; 0.654286; 1" keySplines="0 0 1 1; 0.167 0.167 0.667 1; 0 0 1 1" fill="freeze" /><g transform="rotate(0)"><animateTransform repeatCount="indefinite" type="rotate" attributeName="transform" dur="7s" begin="0s" calcMode="spline" values="0; 0; -6; 0; 0" keyTimes="0; 0.537143; 0.548571; 0.557143; 1" keySplines="0 0 1 1; 0 0 1 1; 0 0 1 1; 0 0 1 1" fill="freeze" /><g transform="scale(0.21,0.21) translate(0,0)"><g opacity="0" visibility="visible" id="i2"><animate repeatCount="indefinite" begin="0s" calcMode="discrete" dur="7s" values="visible; hidden; hidden" keyTimes="0; 0.857; 1" attributeName="visibility" /><animate repeatCount="indefinite" attributeName="opacity" dur="7s" begin="0s" fill="freeze" values="0; 0; 1; 1" keyTimes="0; 0.317143; 0.334286; 1" keySplines="0 0 1 1; 0 0 1 1; 0 0 1 1" calcMode="spline" /><g transform="translate(-40.476,-350)"><animateMotion repeatCount="indefinite" dur="7s" begin="0s" calcMode="spline" keyTimes="0; 0.331429; 0.408571; 1" keySplines="0 0 1 1; 0.333 0 0.833 0.833; 0 0 1 1" keyPoints="0; 0; 1; 1" path="M0 0 C46.627 60.317 55.953 178.818 57.143 290.524" fill="freeze" /><g transform="rotate(-33)"><animateTransform repeatCount="indefinite" type="rotate" attributeName="transform" dur="7s" begin="0s" calcMode="spline" values="-33; -33; 26; 26" keyTimes="0; 0.331429; 0.408571; 1" keySplines="0 0 1 1; 0.333 0 0.833 0.833; 0 0 1 1" fill="freeze" /><g transform="scale(0.762,0.762) translate(0,0)" /></g></g></g></g></g></g></g><g id="i6"><g transform="translate(77,100)"><animateTransform repeatCount="indefinite" type="translate" attributeName="transform" dur="7s" begin="0s" calcMode="spline" values="77 100; 77 100; 210 100; 210 100" keyTimes="0; 0.542857; 0.654286; 1" keySplines="0 0 1 1; 0.167 0.167 0.667 1; 0 0 1 1" fill="freeze" /><g transform="rotate(0)"><animateTransform repeatCount="indefinite" type="rotate" attributeName="transform" dur="7s" begin="0s" calcMode="spline" values="0; 0; -6; 0; 0" keyTimes="0; 0.537143; 0.548571; 0.557143; 1" keySplines="0 0 1 1; 0 0 1 1; 0 0 1 1; 0 0 1 1" fill="freeze" /><g transform="scale(0.21,0.21) translate(0,0)"><g id="i11"><g transform="translate(-139.286,-314.286)"><animateTransform repeatCount="indefinite" type="translate" attributeName="transform" dur="7s" begin="0s" calcMode="spline" values="-139.286 -314.286; -139.286 -314.286; -88.095 -34.524; -88.095 -34.524" keyTimes="0; 0.217143; 0.294286; 1" keySplines="0 0 1 1; 0.333 0 0.833 0.833; 0 0 1 1" fill="freeze" /><g transform="rotate(-21)"><animateTransform repeatCount="indefinite" type="rotate" attributeName="transform" dur="7s" begin="0s" calcMode="spline" values="-21; -21; 1; 24; 1; 1" keyTimes="0; 0.217143; 0.294286; 0.317143; 0.342857; 1" keySplines="0 0 1 1; 0.333 0 0.833 0.833; 0.167 0 0.833 0.833; 0 0 1 1; 0 0 1 1" fill="freeze" /><g transform="scale(0.762,0.762) translate(0,0)"><g opacity="0" visibility="visible" id="i12"><animate repeatCount="indefinite" begin="0s" calcMode="discrete" dur="7s" values="visible; hidden; hidden" keyTimes="0; 0.857; 1" attributeName="visibility" /><animate repeatCount="indefinite" attributeName="opacity" dur="7s" begin="0s" fill="freeze" values="0; 0; 1; 1" keyTimes="0; 0.217143; 0.234286; 1" keySplines="0 0 1 1; 0 0 1 1; 0 0 1 1" calcMode="spline" /><g transform="translate(-1.562,4.688) scale(5.744,6.25) translate(21.75,34.5)"><g id="i5" transform="matrix(1,0,0,1,-21.269,-34.367)"><rect ry="6" rx="6" height="22.267" width="17.963" y="-11.133" x="-8.982" fill="#fa7474" /></g></g></g></g></g></g></g></g></g></g></g><g id="i6"><g transform="translate(77,100)"><animateTransform repeatCount="indefinite" type="translate" attributeName="transform" dur="7s" begin="0s" calcMode="spline" values="77 100; 77 100; 210 100; 210 100" keyTimes="0; 0.542857; 0.654286; 1" keySplines="0 0 1 1; 0.167 0.167 0.667 1; 0 0 1 1" fill="freeze" /><g transform="rotate(0)"><animateTransform repeatCount="indefinite" type="rotate" attributeName="transform" dur="7s" begin="0s" calcMode="spline" values="0; 0; -6; 0; 0" keyTimes="0; 0.537143; 0.548571; 0.557143; 1" keySplines="0 0 1 1; 0 0 1 1; 0 0 1 1; 0 0 1 1" fill="freeze" /><g transform="scale(0.21,0.21) translate(0,0)"><g id="i11"><g transform="translate(-139.286,-314.286)"><animateTransform repeatCount="indefinite" type="translate" attributeName="transform" dur="7s" begin="0s" calcMode="spline" values="-139.286 -314.286; -139.286 -314.286; -88.095 -34.524; -88.095 -34.524" keyTimes="0; 0.217143; 0.294286; 1" keySplines="0 0 1 1; 0.333 0 0.833 0.833; 0 0 1 1" fill="freeze" /><g transform="rotate(-21)"><animateTransform repeatCount="indefinite" type="rotate" attributeName="transform" dur="7s" begin="0s" calcMode="spline" values="-21; -21; 1; 24; 1; 1" keyTimes="0; 0.217143; 0.294286; 0.317143; 0.342857; 1" keySplines="0 0 1 1; 0.333 0 0.833 0.833; 0.167 0 0.833 0.833; 0 0 1 1; 0 0 1 1" fill="freeze" /><g transform="scale(0.762,0.762) translate(0,0)"><g opacity="0" visibility="visible" id="i13"><animate repeatCount="indefinite" begin="0s" calcMode="discrete" dur="7s" values="visible; hidden; hidden" keyTimes="0; 0.857; 1" attributeName="visibility" /><animate repeatCount="indefinite" attributeName="opacity" dur="7s" begin="0s" fill="freeze" values="0; 0; 1; 1" keyTimes="0; 0.217143; 0.234286; 1" keySplines="0 0 1 1; 0 0 1 1; 0 0 1 1" calcMode="spline" /><g transform="translate(0.391,-83.203) scale(6.25,5.777) translate(21.562,47.625)"><g id="i5" transform="matrix(1,0,0,1,-21.433,-47.769)"><rect height="7.963" width="5.134" y="-3.982" x="-2.567" fill="#757575" /></g></g></g></g></g></g></g></g></g></g></g><g id="i6"><g transform="translate(77,100)"><animateTransform repeatCount="indefinite" type="translate" attributeName="transform" dur="7s" begin="0s" calcMode="spline" values="77 100; 77 100; 210 100; 210 100" keyTimes="0; 0.542857; 0.654286; 1" keySplines="0 0 1 1; 0.167 0.167 0.667 1; 0 0 1 1" fill="freeze" /><g transform="rotate(0)"><animateTransform repeatCount="indefinite" type="rotate" attributeName="transform" dur="7s" begin="0s" calcMode="spline" values="0; 0; -6; 0; 0" keyTimes="0; 0.537143; 0.548571; 0.557143; 1" keySplines="0 0 1 1; 0 0 1 1; 0 0 1 1; 0 0 1 1" fill="freeze" /><g transform="scale(0.21,0.21) translate(0,0)"><g id="i11"><g transform="translate(-139.286,-314.286)"><animateTransform repeatCount="indefinite" type="translate" attributeName="transform" dur="7s" begin="0s" calcMode="spline" values="-139.286 -314.286; -139.286 -314.286; -88.095 -34.524; -88.095 -34.524" keyTimes="0; 0.217143; 0.294286; 1" keySplines="0 0 1 1; 0.333 0 0.833 0.833; 0 0 1 1" fill="freeze" /><g transform="rotate(-21)"><animateTransform repeatCount="indefinite" type="rotate" attributeName="transform" dur="7s" begin="0s" calcMode="spline" values="-21; -21; 1; 24; 1; 1" keyTimes="0; 0.217143; 0.294286; 0.317143; 0.342857; 1" keySplines="0 0 1 1; 0.333 0 0.833 0.833; 0.167 0 0.833 0.833; 0 0 1 1; 0 0 1 1" fill="freeze" /><g transform="scale(0.762,0.762) translate(0,0)"><g opacity="0" visibility="visible" id="i14"><animate repeatCount="indefinite" begin="0s" calcMode="discrete" dur="7s" values="visible; hidden; hidden" keyTimes="0; 0.857; 1" attributeName="visibility" /><animate repeatCount="indefinite" attributeName="opacity" dur="7s" begin="0s" fill="freeze" values="0; 0; 1; 1" keyTimes="0; 0.217143; 0.234286; 1" keySplines="0 0 1 1; 0 0 1 1; 0 0 1 1" calcMode="spline" /><g transform="translate(130.078,220.703) scale(6.25,6.25) translate(0,0)"><g id="i4"><path fill="#f8bcbc" d="M-23.75,-43.75C-23.75,-43.75,-25.125,-43.125,-25.125,-43.125C-25.125,-43.125,-27.375,-42.375,-27.375,-38.75C-27.375,-35.125,-27.375,-28.25,-27.375,-28.25C-27.375,-28.25,-26.375,-25.625,-23.75,-25.625C-23.5,-25.75,-23.75,-43.75,-23.75,-43.75Z" /></g></g></g></g></g></g></g></g></g></g></g><g id="i6"><g transform="translate(77,100)"><animateTransform repeatCount="indefinite" type="translate" attributeName="transform" dur="7s" begin="0s" calcMode="spline" values="77 100; 77 100; 210 100; 210 100" keyTimes="0; 0.542857; 0.654286; 1" keySplines="0 0 1 1; 0.167 0.167 0.667 1; 0 0 1 1" fill="freeze" /><g transform="rotate(0)"><animateTransform repeatCount="indefinite" type="rotate" attributeName="transform" dur="7s" begin="0s" calcMode="spline" values="0; 0; -6; 0; 0" keyTimes="0; 0.537143; 0.548571; 0.557143; 1" keySplines="0 0 1 1; 0 0 1 1; 0 0 1 1; 0 0 1 1" fill="freeze" /><g transform="scale(0.21,0.21) translate(0,0)"><g opacity="0" visibility="visible" id="i11"><animate repeatCount="indefinite" begin="0s" calcMode="discrete" dur="7s" values="visible; hidden; hidden" keyTimes="0; 0.857; 1" attributeName="visibility" /><g transform="translate(-139.286,-314.286)"><animateTransform repeatCount="indefinite" type="translate" attributeName="transform" dur="7s" begin="0s" calcMode="spline" values="-139.286 -314.286; -139.286 -314.286; -88.095 -34.524; -88.095 -34.524" keyTimes="0; 0.217143; 0.294286; 1" keySplines="0 0 1 1; 0.333 0 0.833 0.833; 0 0 1 1" fill="freeze" /><g transform="rotate(-21)"><animateTransform repeatCount="indefinite" type="rotate" attributeName="transform" dur="7s" begin="0s" calcMode="spline" values="-21; -21; 1; 24; 1; 1" keyTimes="0; 0.217143; 0.294286; 0.317143; 0.342857; 1" keySplines="0 0 1 1; 0.333 0 0.833 0.833; 0.167 0 0.833 0.833; 0 0 1 1; 0 0 1 1" fill="freeze" /><g transform="scale(0.762,0.762) translate(0,0)" /></g></g></g></g></g></g></g><g id="i6"><g transform="translate(77,100)"><animateTransform repeatCount="indefinite" type="translate" attributeName="transform" dur="7s" begin="0s" calcMode="spline" values="77 100; 77 100; 210 100; 210 100" keyTimes="0; 0.542857; 0.654286; 1" keySplines="0 0 1 1; 0.167 0.167 0.667 1; 0 0 1 1" fill="freeze" /><g transform="rotate(0)"><animateTransform repeatCount="indefinite" type="rotate" attributeName="transform" dur="7s" begin="0s" calcMode="spline" values="0; 0; -6; 0; 0" keyTimes="0; 0.537143; 0.548571; 0.557143; 1" keySplines="0 0 1 1; 0 0 1 1; 0 0 1 1; 0 0 1 1" fill="freeze" /><g transform="scale(0.21,0.21) translate(0,0)"><g opacity="0" visibility="visible" id="i15"><animate repeatCount="indefinite" begin="0s" calcMode="discrete" dur="7s" values="visible; hidden; hidden" keyTimes="0; 0.857; 1" attributeName="visibility" /><animate repeatCount="indefinite" attributeName="opacity" dur="7s" begin="0s" fill="freeze" values="0; 0; 1; 1" keyTimes="0; 0.362857; 0.38; 1" keySplines="0 0 1 1; 0 0 1 1; 0 0 1 1" calcMode="spline" /><g transform="translate(61.905,-340.476)"><animateTransform repeatCount="indefinite" type="translate" attributeName="transform" dur="7s" begin="0s" calcMode="spline" values="61.905 -340.476; 61.905 -340.476; 113.095 -26.19; 113.095 -30.952; 113.095 -26.19; 113.095 -26.19" keyTimes="0; 0.362857; 0.457143; 0.462857; 0.471429; 1" keySplines="0 0 1 1; 0 0 1 1; 0 0 1 1; 0 0 1 1; 0 0 1 1" fill="freeze" /><g transform="rotate(-70)"><animateTransform repeatCount="indefinite" type="rotate" attributeName="transform" dur="7s" begin="0s" calcMode="spline" values="-70; -70; 45; 45" keyTimes="0; 0.362857; 0.457143; 1" keySplines="0 0 1 1; 0 0 1 1; 0 0 1 1" fill="freeze" /><g transform="scale(4.762,4.762) translate(-39,45.75)"><g id="i4"><path fill="#7ac988" d="M39,-56.5C38,-53.5,38,-50,38,-50C38,-50,33.5,-52.5,33.25,-49.5C33,-46.5,30.25,-45.25,29.5,-46C28.75,-46.75,27,-42.25,30,-40.75C33,-39.25,35.75,-39.25,35.75,-37.5C35.75,-35.75,41.25,-35.5,42.25,-36.5C43.25,-37.5,44,-43.5,45.25,-43.5C46.5,-43.5,52.75,-48.5,52,-50C51.25,-51.5,45.5,-51.25,44.75,-54.25C44,-57.25,40,-59.5,39,-56.5Z" /></g><g id="i16"><path fill="#5db06b" d="M35.188,-45.25C35.188,-45.25,32.187,-45.688,31.125,-42.938C30.063,-40.188,27.75,-39.25,27.75,-39.25C27.75,-39.25,28.937,-37.875,30.875,-37.875C32.813,-37.875,33.375,-39.374,35.375,-39.562C37.375,-39.75,38.25,-43.875,38.25,-43.875C38.25,-43.875,35.188,-45.25,35.188,-45.25Z" /></g><g id="i17"><path fill="#5db06b" d="M47.125,-49.562C46.375,-50.374,44,-49.438,44,-49.438C44,-49.438,40.25,-46.75,40.25,-46.75C40.25,-46.75,42.938,-47.75,43.688,-44.75C44.438,-41.75,39.75,-41.937,41.25,-38.625C42.75,-35.313,48.75,-38.063,47.562,-41.125C46.374,-44.187,51.437,-45.437,50.062,-45.562C48.687,-45.687,47.875,-48.75,47.125,-49.562Z" /></g><g id="i18"><path fill="#f2db90" d="M39.812,-57.75C39.812,-57.75,35.687,-57.063,33.062,-56.875C30.437,-56.687,32.312,-52.687,30.75,-51.062C29.188,-49.437,31.062,-46.438,31.062,-46.438C31.062,-46.438,33.5,-46.562,33.5,-46.562C33.5,-46.562,38.562,-48.625,38.562,-48.625C38.562,-48.625,40,-52.188,40,-52.188C40,-52.188,39.812,-57.75,39.812,-57.75Z" /></g><g id="i19"><path fill="#fff0c1" d="M32.312,-50.719C31.624,-50.313,30.813,-49.563,31.938,-47.875C33.063,-46.187,33.469,-48.344,33.469,-48.344C33.469,-48.344,32.75,-49.375,32.75,-49.375C32.75,-49.375,33.062,-50.5,33.062,-50.5C33.062,-50.5,33,-51.125,32.312,-50.719Z" /></g><g id="i20"><path fill="#eaca61" d="M38.188,-56.406C38.188,-56.406,35.75,-57.094,34.75,-56.188C33.75,-55.282,33.344,-56.344,33.5,-55C33.656,-53.656,35.844,-54.781,35.844,-54.781C35.844,-54.781,36.562,-55.563,37.562,-55.719C38.562,-55.875,38.188,-56.406,38.188,-56.406Z" /></g></g></g></g></g></g></g></g></g><g id="i6"><g transform="translate(77,100)"><animateTransform repeatCount="indefinite" type="translate" attributeName="transform" dur="7s" begin="0s" calcMode="spline" values="77 100; 77 100; 210 100; 210 100" keyTimes="0; 0.542857; 0.654286; 1" keySplines="0 0 1 1; 0.167 0.167 0.667 1; 0 0 1 1" fill="freeze" /><g transform="rotate(0)"><animateTransform repeatCount="indefinite" type="rotate" attributeName="transform" dur="7s" begin="0s" calcMode="spline" values="0; 0; -6; 0; 0" keyTimes="0; 0.537143; 0.548571; 0.557143; 1" keySplines="0 0 1 1; 0 0 1 1; 0 0 1 1; 0 0 1 1" fill="freeze" /><g transform="scale(0.21,0.21) translate(0,0)"><g opacity="0" visibility="visible" id="i21"><animate repeatCount="indefinite" begin="0s" calcMode="discrete" dur="7s" values="visible; hidden; hidden" keyTimes="0; 0.857; 1" attributeName="visibility" /><animate repeatCount="indefinite" attributeName="opacity" dur="7s" begin="0s" fill="freeze" values="0; 0; 1; 1" keyTimes="0; 0.431429; 0.442857; 1" keySplines="0 0 1 1; 0 0 1 1; 0 0 1 1" calcMode="spline" /><g transform="translate(-119.048,-364.286)"><animateTransform repeatCount="indefinite" type="translate" attributeName="transform" dur="7s" begin="0s" calcMode="spline" values="-119.048 -364.286; -119.048 -364.286; -39.286 -190.476; -36.905 -161.905; -36.905 -161.905" keyTimes="0; 0.431429; 0.502857; 0.525714; 1" keySplines="0 0 1 1; 0 0 1 1; 0 0 1 1; 0 0 1 1" fill="freeze" /><g transform="rotate(-46)"><animateTransform repeatCount="indefinite" type="rotate" attributeName="transform" dur="7s" begin="0s" calcMode="spline" values="-46; -46; -25; -43; -43" keyTimes="0; 0.431429; 0.502857; 0.525714; 1" keySplines="0 0 1 1; 0 0 1 1; 0 0 1 1; 0 0 1 1" fill="freeze" /><g transform="scale(4.762,4.762) translate(-13.5,38.5)"><g id="i5" transform="matrix(1,0,0,1,13.422,-38.828)"><rect height="23.844" width="23.844" y="-11.922" x="-11.922" fill="#caa784" /></g><g id="i22" transform="matrix(1,0,0,1,13.184,-38.815)"><rect height="23.807" width="4.575" y="-11.903" x="-2.288" fill="#a88564" /></g><g id="i23" transform="matrix(1.289,0,0,1.289,5.818,-40.917)"><ellipse ry="1.258" rx="1.258" cy="0" cx="0" fill="#e0c8b1" /></g><g id="i24" transform="matrix(1,0,0,1,13.191,-38.491)"><rect height="5.017" width="23.633" y="-2.509" x="-11.816" fill="#a88564" /></g><g id="i4" transform="matrix(1,0,0,1,1.375,0)"><path stroke-width="1" stroke="#caa784" d="M11.75,-50.5C11.75,-50.5,11.75,-27.375,11.75,-27.375" /></g><g id="i25" transform="matrix(1,0,0,1,5.009,-46.554)"><ellipse ry="1.258" rx="1.258" cy="0" cx="0" fill="#e0c8b1" /></g><g id="i26" transform="matrix(1,0,0,1,6.12,-32.756)"><ellipse ry="1.258" rx="1.258" cy="0" cx="0" fill="#e0c8b1" /></g><g id="i27" transform="matrix(0.752,0,0,0.752,18.344,-33.392)"><ellipse ry="1.258" rx="1.258" cy="0" cx="0" fill="#e0c8b1" /></g><g id="i28" transform="matrix(1.617,0,0,1.617,20.109,-46.799)"><ellipse ry="1.258" rx="1.258" cy="0" cx="0" fill="#e0c8b1" /></g><g id="i29" transform="matrix(1.003,0,0,1.003,21.776,-30.008)"><ellipse ry="1.258" rx="1.258" cy="0" cx="0" fill="#e0c8b1" /></g></g></g></g></g></g></g></g></g><g opacity="0" visibility="visible" id="i6"><animate repeatCount="indefinite" begin="0s" calcMode="discrete" dur="7s" values="visible; hidden; hidden" keyTimes="0; 0.857; 1" attributeName="visibility" /><g transform="translate(77,100)"><animateTransform repeatCount="indefinite" type="translate" attributeName="transform" dur="7s" begin="0s" calcMode="spline" values="77 100; 77 100; 210 100; 210 100" keyTimes="0; 0.542857; 0.654286; 1" keySplines="0 0 1 1; 0.167 0.167 0.667 1; 0 0 1 1" fill="freeze" /><g transform="rotate(0)"><animateTransform repeatCount="indefinite" type="rotate" attributeName="transform" dur="7s" begin="0s" calcMode="spline" values="0; 0; -6; 0; 0" keyTimes="0; 0.537143; 0.548571; 0.557143; 1" keySplines="0 0 1 1; 0 0 1 1; 0 0 1 1; 0 0 1 1" fill="freeze" /><g transform="scale(0.21,0.21) translate(0,0)" /></g></g></g><g id="i30"><g transform="translate(-53.5,124.25)"><animateTransform repeatCount="indefinite" type="translate" attributeName="transform" dur="7s" begin="0s" calcMode="spline" values="-53.5 124.25; -53.5 124.25; 79.5 124.25; 79.5 124.25; 217.5 124.25; 217.5 124.25" keyTimes="0; 0.071429; 0.165714; 0.542857; 0.654286; 1" keySplines="0 0 1 1; 0.333 0 0.833 0.833; 0 0 1 1; 0.167 0.167 0.667 1; 0 0 1 1" fill="freeze" /><g transform="rotate(0)"><animateTransform repeatCount="indefinite" type="rotate" attributeName="transform" dur="7s" begin="0s" calcMode="spline" values="0; 0; 0; 4; 0; 0; -4; 0; 0" keyTimes="0; 0.071429; 0.165714; 0.18; 0.202857; 0.537143; 0.548571; 0.562857; 1" keySplines="0 0 1 1; 0 0 1 1; 0 0 1 1; 0 0 1 1; 0 0 1 1; 0 0 1 1; 0 0 1 1; 0 0 1 1" fill="freeze" /><g transform="scale(1,1) translate(0,-44.25)"><g transform="matrix(1,0,0,1,-8.75,0)" visibility="visible" id="i31"><animate repeatCount="indefinite" begin="0s" calcMode="discrete" dur="7s" values="visible; hidden; hidden" keyTimes="0; 0.857; 1" attributeName="visibility" /><g id="i4"><path fill="#e6b973" d="M-34.75,25C-34.75,25,-34.875,40.25,-34.875,42.5C-34.875,44.75,-33,44.75,-33,44.75C-33,44.75,-28.75,44.75,-28.75,44.75C-28.75,44.75,-28.625,30.75,-15.625,31.125C-2.625,31.5,-3.125,44.875,-3.125,44.875C-3.125,44.875,3.625,44.75,3.625,44.75C3.625,44.75,3.125,31.875,16.125,31.75C29.125,31.625,29,44.5,29,44.5C29,44.5,38.5,44.75,38.5,44.75C38.5,44.75,45.647,25.144,45.647,25.144C45.647,25.144,-34.75,25,-34.75,25Z" /></g></g></g></g></g></g><g id="i30"><g transform="translate(-53.5,124.25)"><animateTransform repeatCount="indefinite" type="translate" attributeName="transform" dur="7s" begin="0s" calcMode="spline" values="-53.5 124.25; -53.5 124.25; 79.5 124.25; 79.5 124.25; 217.5 124.25; 217.5 124.25" keyTimes="0; 0.071429; 0.165714; 0.542857; 0.654286; 1" keySplines="0 0 1 1; 0.333 0 0.833 0.833; 0 0 1 1; 0.167 0.167 0.667 1; 0 0 1 1" fill="freeze" /><g transform="rotate(0)"><animateTransform repeatCount="indefinite" type="rotate" attributeName="transform" dur="7s" begin="0s" calcMode="spline" values="0; 0; 0; 4; 0; 0; -4; 0; 0" keyTimes="0; 0.071429; 0.165714; 0.18; 0.202857; 0.537143; 0.548571; 0.562857; 1" keySplines="0 0 1 1; 0 0 1 1; 0 0 1 1; 0 0 1 1; 0 0 1 1; 0 0 1 1; 0 0 1 1; 0 0 1 1" fill="freeze" /><g transform="scale(1,1) translate(0,-44.25)"><g transform="matrix(1,0,0,1.24,-9.25,-3.658)" opacity="0.7" visibility="visible" id="i32"><animate repeatCount="indefinite" begin="0s" calcMode="discrete" dur="7s" values="visible; hidden; hidden" keyTimes="0; 0.857; 1" attributeName="visibility" /><g id="i4"><path fill="#e8b769" d="M56.25,-3.5C56.25,-3.5,-34.5,-3.5,-34.5,-3.5C-34.5,-3.5,-34.25,23.5,-34.25,23.5C-34.25,23.5,48.375,23.5,48.375,23.5C48.375,23.5,55.625,5.375,55.625,5.375C55.625,5.375,60.5,5.875,61.25,1.625C61.25,-3.125,56.25,-3.5,56.25,-3.5Z" /></g></g></g></g></g></g><g visibility="visible" id="i33"><animate repeatCount="indefinite" begin="0s" calcMode="discrete" dur="7s" values="visible; hidden; hidden" keyTimes="0; 0.857; 1" attributeName="visibility" /><g transform="translate(-77.875,124)"><animateTransform repeatCount="indefinite" type="translate" attributeName="transform" dur="7s" begin="0s" calcMode="spline" values="-77.875 124; -77.875 124; 55.125 124; 55.125 124; 193.125 124; 193.125 124" keyTimes="0; 0.071429; 0.165714; 0.542857; 0.654286; 1" keySplines="0 0 1 1; 0.333 0 0.833 0.833; 0 0 1 1; 0.167 0.167 0.667 1; 0 0 1 1" fill="freeze" /><g transform="rotate(0)"><animateTransform repeatCount="indefinite" type="rotate" attributeName="transform" dur="7s" begin="0s" calcMode="spline" values="0; 0; 180; 180; 360; 360" keyTimes="0; 0.071429; 0.165714; 0.542857; 0.654286; 1" keySplines="0 0 1 1; 0 0 1 1; 0 0 1 1; 0 0 1 1; 0 0 1 1" fill="freeze" /><g transform="scale(0.423,0.423) translate(0,0)"><g id="i25" transform="matrix(4.886,0,0,4.886,-0.016,-0.016)"><ellipse ry="3.971" rx="3.971" cy="0" cx="0" stroke-width="2" stroke="#5c5c5c" fill="#a6895c" /></g><g id="i4"><path stroke-width="2" stroke="#5c5c5c" fill="#a6895c" d="M0.074,0.074C0.074,0.074,10.185,10.185,10.185,10.185" /></g><g id="i16"><path stroke-width="2" stroke="#5c5c5c" fill="#a6895c" d="M-10.849,10.185C-10.849,10.185,-0.074,0,-0.074,0C-0.074,0,-10.923,-10.332,-10.923,-10.332" /></g><g id="i17"><path stroke-width="2" stroke="#5c5c5c" fill="#a6895c" d="M10.185,-10.185C10.185,-10.185,0.148,-0.295,0.148,-0.295" /></g></g></g></g></g><g visibility="visible" id="i34"><animate repeatCount="indefinite" begin="0s" calcMode="discrete" dur="7s" values="visible; hidden; hidden" keyTimes="0; 0.857; 1" attributeName="visibility" /><g transform="translate(-46.125,124)"><animateTransform repeatCount="indefinite" type="translate" attributeName="transform" dur="7s" begin="0s" calcMode="spline" values="-46.125 124; -46.125 124; 86.875 124; 86.875 124; 224.875 124; 224.875 124" keyTimes="0; 0.071429; 0.165714; 0.542857; 0.654286; 1" keySplines="0 0 1 1; 0.333 0 0.833 0.833; 0 0 1 1; 0.167 0.167 0.667 1; 0 0 1 1" fill="freeze" /><g transform="rotate(0)"><animateTransform repeatCount="indefinite" type="rotate" attributeName="transform" dur="7s" begin="0s" calcMode="spline" values="0; 0; 180; 180; 360; 360" keyTimes="0; 0.071429; 0.165714; 0.542857; 0.654286; 1" keySplines="0 0 1 1; 0 0 1 1; 0 0 1 1; 0 0 1 1; 0 0 1 1" fill="freeze" /><g transform="scale(0.423,0.423) translate(0,0)"><g id="i25" transform="matrix(4.886,0,0,4.886,-0.016,-0.016)"><ellipse ry="3.971" rx="3.971" cy="0" cx="0" stroke-width="2" stroke="#5c5c5c" fill="#a6895c" /></g><g id="i4"><path stroke-width="2" stroke="#5c5c5c" fill="#a6895c" d="M0.074,0.074C0.074,0.074,10.185,10.185,10.185,10.185" /></g><g id="i16"><path stroke-width="2" stroke="#5c5c5c" fill="#a6895c" d="M-10.849,10.185C-10.849,10.185,-0.074,0,-0.074,0C-0.074,0,-10.923,-10.332,-10.923,-10.332" /></g><g id="i17"><path stroke-width="2" stroke="#5c5c5c" fill="#a6895c" d="M10.185,-10.185C10.185,-10.185,0.148,-0.295,0.148,-0.295" /></g></g></g></g></g><g opacity="0" visibility="visible" id="i30"><animate repeatCount="indefinite" begin="0s" calcMode="discrete" dur="7s" values="visible; hidden; hidden" keyTimes="0; 0.857; 1" attributeName="visibility" /><g transform="translate(-53.5,124.25)"><animateTransform repeatCount="indefinite" type="translate" attributeName="transform" dur="7s" begin="0s" calcMode="spline" values="-53.5 124.25; -53.5 124.25; 79.5 124.25; 79.5 124.25; 217.5 124.25; 217.5 124.25" keyTimes="0; 0.071429; 0.165714; 0.542857; 0.654286; 1" keySplines="0 0 1 1; 0.333 0 0.833 0.833; 0 0 1 1; 0.167 0.167 0.667 1; 0 0 1 1" fill="freeze" /><g transform="rotate(0)"><animateTransform repeatCount="indefinite" type="rotate" attributeName="transform" dur="7s" begin="0s" calcMode="spline" values="0; 0; 0; 4; 0; 0; -4; 0; 0" keyTimes="0; 0.071429; 0.165714; 0.18; 0.202857; 0.537143; 0.548571; 0.562857; 1" keySplines="0 0 1 1; 0 0 1 1; 0 0 1 1; 0 0 1 1; 0 0 1 1; 0 0 1 1; 0 0 1 1; 0 0 1 1" fill="freeze" /><g transform="scale(1,1) translate(0,-44.25)" /></g></g></g><g id="i30"><g transform="translate(-53.5,124.25)"><animateTransform repeatCount="indefinite" type="translate" attributeName="transform" dur="7s" begin="0s" calcMode="spline" values="-53.5 124.25; -53.5 124.25; 79.5 124.25; 79.5 124.25; 217.5 124.25; 217.5 124.25" keyTimes="0; 0.071429; 0.165714; 0.542857; 0.654286; 1" keySplines="0 0 1 1; 0.333 0 0.833 0.833; 0 0 1 1; 0.167 0.167 0.667 1; 0 0 1 1" fill="freeze" /><g transform="rotate(0)"><animateTransform repeatCount="indefinite" type="rotate" attributeName="transform" dur="7s" begin="0s" calcMode="spline" values="0; 0; 0; 4; 0; 0; -4; 0; 0" keyTimes="0; 0.071429; 0.165714; 0.18; 0.202857; 0.537143; 0.548571; 0.562857; 1" keySplines="0 0 1 1; 0 0 1 1; 0 0 1 1; 0 0 1 1; 0 0 1 1; 0 0 1 1; 0 0 1 1; 0 0 1 1" fill="freeze" /><g transform="scale(1,1) translate(0,-44.25)"><g transform="matrix(0.756,-0.491,0.392,0.604,-16.587,-22.116)" visibility="visible" id="i35"><animate repeatCount="indefinite" begin="0s" calcMode="discrete" dur="7s" values="visible; hidden; hidden" keyTimes="0; 0.857; 1" attributeName="visibility" /><g id="i4"><path stroke-linecap="round" stroke-width="6" stroke="#626262" d="M-33,-25.75C-33,-25.75,-33,-1,-33,-1" /></g></g></g></g></g></g><g visibility="visible" id="i36"><animate repeatCount="indefinite" begin="0s" calcMode="discrete" dur="7s" values="visible; hidden; hidden" keyTimes="0; 0.857; 1" attributeName="visibility" /><animate repeatCount="indefinite" attributeName="opacity" dur="7s" begin="0s" fill="freeze" values="1; 1; 0; 0" keyTimes="0; 0.748571; 0.774286; 1" keySplines="0 0 1 1; 0 0 1 1; 0 0 1 1" calcMode="spline" /><g transform="translate(78,81) rotate(-91) scale(1,1) translate(-1,-7.5)"><g id="i25" transform="matrix(1,0,0,1,2.017,8.017)"><ellipse stroke-dashoffset="-75" stroke-dasharray="0 100" pathLength="100" ry="36.517" rx="36.517" cy="0" cx="0" stroke-linecap="round" stroke-width="5" stroke="#517721"><animate repeatCount="indefinite" fill="freeze" begin="0s" dur="7s" calcMode="spline" keySplines="0 0 1 1; 0.333 0 0.667 1; 0 0 1 1" keyTimes="0; 0.662857; 0.72; 1" values="0 100; 0 100; 100 0; 100 0" attributeName="stroke-dasharray" /><animate repeatCount="indefinite" fill="freeze" begin="0s" dur="7s" calcMode="spline" keySplines="0 0 1 1; 0.333 0 0.667 1; 0 0 1 1" keyTimes="0; 0.662857; 0.72; 1" values="-75; -75; -75; -75" attributeName="stroke-dashoffset" /></ellipse></g></g></g><g transform="matrix(-0.017,-1,1,-0.017,70.519,82.131)" id="i37"><g id="i25" transform="matrix(1,0,0,1,2.017,8.017)"><ellipse stroke-dashoffset="-75" stroke-dasharray="0 100" pathLength="100" ry="36.517" rx="36.517" cy="0" cx="0" stroke-linecap="round" stroke-width="3" stroke="#7bb92b"><animate repeatCount="indefinite" fill="freeze" begin="0s" dur="7s" calcMode="spline" keySplines="0 0 1 1; 0.333 0 0.667 1; 0.333 0 0.833 1; 0 0 1 1" keyTimes="0; 0.677143; 0.734286; 0.774286; 1" values="0 100; 0 100; 100 0; 0 100; 0 100" attributeName="stroke-dasharray" /><animate repeatCount="indefinite" fill="freeze" begin="0s" dur="7s" calcMode="spline" keySplines="0 0 1 1; 0.333 0 0.667 1; 0.333 0 0.833 1; 0 0 1 1" keyTimes="0; 0.677143; 0.734286; 0.774286; 1" values="-75; -75; -75; -75; -75" attributeName="stroke-dashoffset" /></ellipse></g></g><g transform="matrix(1,0,0,1,80,80)" id="i38"><g stroke-dasharray="0 100" pathLength="100" id="i4"><path d="M-38.5,0.5C-38.5,0.5,-21.5,17.5,-21.5,17.5C-21.5,17.5,9,-13,9,-13" stroke-linecap="round" stroke-width="4" stroke="#7bb92b"><animate repeatCount="indefinite" attributeName="d" dur="7s" begin="0s" calcMode="spline" values="M-38.5,0.5C-38.5,0.5,-21.5,17.5,-21.5,17.5C-21.5,17.5,9,-13,9,-13; M-38.5,0.5C-38.5,0.5,-21.5,17.5,-21.5,17.5C-21.5,17.5,9,-13,9,-13; M-37.269,1.346C-37.269,1.346,-16.923,17.231,-16.923,17.231C-16.923,17.231,14.385,-14.077,14.385,-14.077; M-36.878,0.974C-36.878,0.974,-13.654,17.038,-13.654,17.038C-13.654,17.038,18.231,-14.846,18.231,-14.846; M-26,3C-26,3,-13,17,-13,17C-13,17,19,-15,19,-15; M-26,3C-26,3,-13,17,-13,17C-13,17,19,-15,19,-15" keyTimes="0; 0.737143; 0.757143; 0.771429; 0.788571; 1" keySplines="0 0 1 1; 0.333 0 0.667 1; 0.333 0 0.667 1; 0.333 0 0.667 1; 0 0 1 1" fill="freeze" /></path><animate repeatCount="indefinite" fill="freeze" begin="0s" dur="7s" calcMode="spline" keySplines="0 0 1 1; 0.333 0 0.667 1; 0 0 1 1" keyTimes="0; 0.737143; 0.774286; 1" values="0 100; 0 100; 100 0; 100 0" attributeName="stroke-dasharray" /><animate repeatCount="indefinite" fill="freeze" begin="0s" dur="7s" calcMode="spline" keySplines="0 0 1 1; 0.333 0 0.667 1; 0 0 1 1" keyTimes="0; 0.737143; 0.774286; 1" values="0; 0; 0; 0" attributeName="stroke-dashoffset" /></g></g><g opacity="0" id="i39"><animate repeatCount="indefinite" attributeName="opacity" dur="7s" begin="0s" fill="freeze" values="0; 0; 1; 1" keyTimes="0; 0.765714; 0.771429; 1" keySplines="0 0 1 1; 0.333 0 0.667 1; 0 0 1 1" calcMode="spline" /><g transform="translate(80,80) scale(1,1) translate(0,0)"><g stroke-dashoffset="-99" stroke-dasharray="1 99" pathLength="100" id="i4"><path d="M-38.5,0.5C-38.5,0.5,-21.5,17.5,-21.5,17.5C-21.5,17.5,9,-13,9,-13" stroke-linecap="round" stroke-width="4" stroke="#7bb92b"><animate repeatCount="indefinite" attributeName="d" dur="7s" begin="0s" calcMode="spline" values="M-38.5,0.5C-38.5,0.5,-21.5,17.5,-21.5,17.5C-21.5,17.5,9,-13,9,-13; M-38.5,0.5C-38.5,0.5,-21.5,17.5,-21.5,17.5C-21.5,17.5,9,-13,9,-13; M-37.269,1.346C-37.269,1.346,-16.923,17.231,-16.923,17.231C-16.923,17.231,14.385,-14.077,14.385,-14.077; M-36.878,0.974C-36.878,0.974,-13.654,17.038,-13.654,17.038C-13.654,17.038,18.231,-14.846,18.231,-14.846; M-26,3C-26,3,-13,17,-13,17C-13,17,23.25,-19,23.25,-19; M-26,3C-26,3,-13,17,-13,17C-13,17,23.25,-19,23.25,-19" keyTimes="0; 0.737143; 0.757143; 0.771429; 0.788571; 1" keySplines="0 0 1 1; 0 0 1 1; 0 0 1 1; 0 0 1 1; 0 0 1 1" fill="freeze" /></path><animate repeatCount="indefinite" fill="freeze" begin="0s" dur="7s" calcMode="spline" keySplines="0 0 1 1; 0 0 1 1; 0 0 1 1; 0 0 1 1" keyTimes="0; 0.737143; 0.774286; 0.788571; 1" values="1 99; 1 99; 1 99; 1 99; 1 99" attributeName="stroke-dasharray" /><animate repeatCount="indefinite" fill="freeze" begin="0s" dur="7s" calcMode="spline" keySplines="0 0 1 1; 0 0 1 1; 0 0 1 1; 0 0 1 1" keyTimes="0; 0.737143; 0.774286; 0.788571; 1" values="-99; -99; -99; -99; -99" attributeName="stroke-dashoffset" /></g></g></g><g transform="matrix(1,0,0,1,80,80)" id="i40" /></svg>